<svg xmlns="http://www.w3.org/2000/svg" width="198.433" height="80" viewBox="0 0 198.433 80">
  <g id="Group_16461" data-name="Group 16461" transform="translate(-58.852 -66.479)">
    <g id="Group_21" data-name="Group 21" transform="translate(58.852 66.479)">
      <g id="Group_20" data-name="Group 20" transform="translate(0.002 0.002)">
        <path id="Path_69" data-name="Path 69" d="M120.21,121.925c0-.005,0-.005-.006-.005a4.717,4.717,0,0,0-.407-.407c0-.006,0-.006-.006-.006a4.715,4.715,0,0,0-.407-.407c0-.006,0-.006-.005-.006a4.867,4.867,0,0,0-.407-.407c0-.005,0-.005-.006-.005a4.714,4.714,0,0,0-.407-.407c0-.006,0-.006-.006-.006a4.715,4.715,0,0,0-.407-.407c0-.006,0-.006-.005-.006a4.8,4.8,0,0,0-.408-.407c0-.005,0-.005-.005-.005a4.719,4.719,0,0,0-.407-.408c0-.005,0-.005-.006-.005a4.712,4.712,0,0,0-.407-.407c0-.006,0-.006-.006-.006a4.717,4.717,0,0,0-.407-.407c0-.005,0-.005-.005-.005a6.056,6.056,0,0,0-1.449-1.162v-40.8c0-.214-.1-.324-.1-.539a1.154,1.154,0,0,0-.11-.65c0-.11-.1-.325-.1-.435a4.392,4.392,0,0,0-.22-.65.809.809,0,0,1-.215-.435,2.844,2.844,0,0,0-.435-.54c-.11-.11-.215-.325-.325-.435l-.435-.435c0-.066-.083-.132-.176-.176l-.215-.215-.022-.022c0-.066-.083-.132-.176-.176l-.214-.214-.022-.022c0-.066-.083-.132-.176-.176l-.215-.215-.022-.022c0-.066-.083-.132-.176-.176l-.215-.215-.022-.022c0-.066-.083-.132-.176-.176l-.214-.214-.022-.022c0-.066-.083-.132-.176-.176l-.215-.215-.022-.022c0-.066-.083-.132-.176-.176l-.215-.215-.022-.022c0-.066-.083-.132-.176-.176l-.215-.215-.022-.022c0-.066-.083-.132-.176-.176l-.215-.214-.022-.022c0-.066-.083-.132-.176-.176L108.959,68c0-.1-.215-.215-.325-.215a.1.1,0,0,0-.1-.11c-.22-.1-.33-.215-.545-.325-.11-.111-.325-.215-.54-.435-.11,0-.325-.1-.435-.1-.215-.11-.545-.11-.65-.22a1.025,1.025,0,0,1-.545-.1h-1.84a.673.673,0,0,1-.435.1c-.325.11-.54.11-.65.22-.215,0-.325.1-.435.325a1.153,1.153,0,0,0-.65.215c-.1.11-.325.22-.435.325a1.091,1.091,0,0,1-.54.325,1.4,1.4,0,0,1-.325.435c-.11.11-.11.214-.215.214l-40.1,49.859a5.8,5.8,0,0,0,.539,7.974,3.737,3.737,0,0,0,.413.413,3.611,3.611,0,0,0,.413.413,21073.316,21073.316,0,0,0,.826.826,31643.331,31643.331,0,0,0,.826.826,31603.6,31603.6,0,0,0,.826.826,3.611,3.611,0,0,0,.413.413,5.738,5.738,0,0,0,.848.782,5.318,5.318,0,0,0,3.684,1.3H98.992v4.108a5.918,5.918,0,0,0,1.938,4.449l.017.017q.19.206.4.4c.005.006.011.006.011.011a5.446,5.446,0,0,0,.4.4l.016.016q.19.207.4.4c.006.006.011.006.011.011a5.533,5.533,0,0,0,.4.4l.017.017q.19.206.4.4c.005.005.011.005.011.011a5.539,5.539,0,0,0,.4.4l.017.017q.19.206.4.4c.006.006.011.006.011.011a5.546,5.546,0,0,0,.4.4l.017.017q.19.206.4.4c.006.006.011.006.011.011a5.989,5.989,0,0,0,10.38-4.048v-8.238h1.085a5.93,5.93,0,0,0,4.087-10.353ZM98.992,98.714v17.517H84.877Z" transform="translate(-58.856 -66.482)" fill="#dfebff"/>
        <path id="Path_70" data-name="Path 70" d="M120.21,121.925c0-.005,0-.005-.006-.005a4.717,4.717,0,0,0-.407-.407c0-.006,0-.006-.006-.006a4.715,4.715,0,0,0-.407-.407c0-.006,0-.006-.005-.006a4.867,4.867,0,0,0-.407-.407c0-.005,0-.005-.006-.005a4.714,4.714,0,0,0-.407-.407c0-.006,0-.006-.006-.006a4.715,4.715,0,0,0-.407-.407c0-.006,0-.006-.005-.006a4.8,4.8,0,0,0-.408-.407c0-.005,0-.005-.005-.005a4.719,4.719,0,0,0-.407-.408c0-.005,0-.005-.006-.005a4.712,4.712,0,0,0-.407-.407c0-.006,0-.006-.006-.006a4.717,4.717,0,0,0-.407-.407c0-.005,0-.005-.005-.005a6.056,6.056,0,0,0-1.449-1.162v-40.8c0-.214-.1-.324-.1-.539a1.154,1.154,0,0,0-.11-.65c0-.11-.1-.325-.1-.435a4.392,4.392,0,0,0-.22-.65.809.809,0,0,1-.215-.435,2.844,2.844,0,0,0-.435-.54c-.11-.11-.215-.325-.325-.435l-.435-.435c0-.066-.083-.132-.176-.176l-.215-.215-.022-.022c0-.066-.083-.132-.176-.176l-.214-.214-.022-.022c0-.066-.083-.132-.176-.176l-.215-.215-.022-.022c0-.066-.083-.132-.176-.176l-.215-.215-.022-.022c0-.066-.083-.132-.176-.176l-.214-.214-.022-.022c0-.066-.083-.132-.176-.176l-.215-.215-.022-.022c0-.066-.083-.132-.176-.176l-.215-.215-.022-.022c0-.066-.083-.132-.176-.176l-.215-.215-.022-.022c0-.066-.083-.132-.176-.176l-.215-.214-.022-.022c0-.066-.083-.132-.176-.176L108.959,68c0-.1-.215-.215-.325-.215a.1.1,0,0,0-.1-.11c-.22-.1-.33-.215-.545-.325-.11-.111-.325-.215-.54-.435-.11,0-.325-.1-.435-.1-.215-.11-.545-.11-.65-.22a1.025,1.025,0,0,1-.545-.1h-1.84a.673.673,0,0,1-.435.1c-.325.11-.54.11-.65.22-.215,0-.325.1-.435.325a1.153,1.153,0,0,0-.65.215c-.1.11-.325.22-.435.325a1.091,1.091,0,0,1-.54.325,1.4,1.4,0,0,1-.325.435c-.11.11-.11.214-.215.214l-40.1,49.859a5.8,5.8,0,0,0,.539,7.974,3.737,3.737,0,0,0,.413.413,3.611,3.611,0,0,0,.413.413,21073.316,21073.316,0,0,0,.826.826,31643.331,31643.331,0,0,0,.826.826,31603.6,31603.6,0,0,0,.826.826,3.611,3.611,0,0,0,.413.413,5.738,5.738,0,0,0,.848.782,5.318,5.318,0,0,0,3.684,1.3H98.992v4.108a5.918,5.918,0,0,0,1.938,4.449l.017.017q.19.206.4.4c.005.006.011.006.011.011a5.446,5.446,0,0,0,.4.4l.016.016q.19.207.4.4c.006.006.011.006.011.011a5.533,5.533,0,0,0,.4.4l.017.017q.19.206.4.4c.005.005.011.005.011.011a5.539,5.539,0,0,0,.4.4l.017.017q.19.206.4.4c.006.006.011.006.011.011a5.546,5.546,0,0,0,.4.4l.017.017q.19.206.4.4c.006.006.011.006.011.011a5.989,5.989,0,0,0,10.38-4.048v-8.238h1.085a5.93,5.93,0,0,0,4.087-10.353ZM98.992,98.714v17.517H84.877Z" transform="translate(-58.856 -66.482)" fill="#dfebff" opacity="0.1"/>
      </g>
      <g id="Path_71" data-name="Path 71" transform="translate(-58.852 -66.479)" fill="#dfebff">
        <path d="M 104.9482803344727 141.5973205566406 C 103.5234832763672 141.5973205566406 102.2057418823242 141.0642547607422 101.2378158569336 140.0963287353516 C 100.2699661254883 139.1284637451172 99.73694610595703 137.8109588623047 99.73694610595703 136.386474609375 L 99.73694610595703 128.1485443115234 L 99.73694610595703 127.3985443115234 L 98.98694610595703 127.3985443115234 L 65.06299591064453 127.3985443115234 L 64.95451354980469 127.3985443115234 L 64.84603118896484 127.3985443115234 C 63.53243255615234 127.3985443115234 62.49107360839844 127.0360336303711 61.66244506835938 126.2902984619141 L 61.63931274414062 126.2694854736328 L 61.61453247070312 126.2506484985352 C 60.51012420654297 125.4113388061523 59.80934524536133 124.2170486450195 59.64129257202148 122.8877716064453 C 59.46647262573242 121.5049438476562 59.86818695068359 120.1136474609375 60.77244186401367 118.9698944091797 L 100.7562789916992 69.26064300537109 C 100.8694686889648 69.18558502197266 100.9686813354492 69.07958984375 101.0532455444336 68.94306945800781 C 101.0537185668945 68.94230651855469 101.0541915893555 68.94153594970703 101.0546722412109 68.94075012207031 C 101.1392135620117 68.85591888427734 101.240852355957 68.75052642822266 101.3449249267578 68.5982666015625 C 101.6103057861328 68.47482299804688 101.7625503540039 68.33970642089844 101.8936538696289 68.20921325683594 C 101.9145736694336 68.19243621826172 101.9676284790039 68.15702056884766 102.0033645629883 68.13317108154297 C 102.0762939453125 68.08449554443359 102.1559371948242 68.03134155273438 102.2334594726562 67.96785736083984 C 102.2560195922852 67.95556640625 102.2767181396484 67.94400787353516 102.2953948974609 67.93357849121094 C 102.3933944702148 67.87886047363281 102.3933944702148 67.87886047363281 102.4547424316406 67.87886047363281 L 102.9172668457031 67.87886047363281 L 103.0802612304688 67.55445098876953 L 103.1993103027344 67.55445098876953 L 103.3352355957031 67.41854095458984 C 103.3525314331055 67.41435241699219 103.37060546875 67.41007995605469 103.3864364624023 67.40634155273438 C 103.4596786499023 67.38905334472656 103.5530242919922 67.36701965332031 103.6601486206055 67.33552551269531 C 103.7947998046875 67.32999420166016 103.9842834472656 67.30898284912109 104.1729354858398 67.22900390625 L 104.7313232421875 67.22900390625 L 104.9482803344727 67.22900390625 L 105.1642150878906 67.22900390625 L 105.6573944091797 67.22900390625 C 105.8510818481445 67.30417633056641 106.0091400146484 67.32726287841797 106.1595764160156 67.3343505859375 C 106.2839431762695 67.38529968261719 106.4070510864258 67.41244506835938 106.5103912353516 67.43523406982422 C 106.5651550292969 67.44730377197266 106.6479110717773 67.46555328369141 106.6759262084961 67.47739410400391 L 106.8342742919922 67.55654907226562 L 106.9413528442383 67.55525207519531 C 106.9565277099609 67.56015777587891 106.9733200073242 67.56575775146484 106.9866561889648 67.57020568847656 C 107.0172882080078 67.58041381835938 107.0497817993164 67.59123992919922 107.0839920043945 67.60176086425781 C 107.1898727416992 67.69061279296875 107.286979675293 67.75936889648438 107.3651428222656 67.81472015380859 C 107.3973922729492 67.83755493164062 107.4408493041992 67.86831665039062 107.4580078125 67.88231658935547 L 107.5379104614258 67.96221160888672 L 107.6467514038086 68.01663208007812 C 107.712890625 68.04971313476562 107.7645874023438 68.08421325683594 107.8361129760742 68.13196563720703 C 107.8511352539062 68.14198303222656 107.8667526245117 68.15241241455078 107.8830718994141 68.16318511962891 L 107.8830718994141 68.52975463867188 L 108.4314041137695 68.52975463867188 C 108.5556945800781 68.654052734375 108.6434936523438 68.74237060546875 108.7163238525391 68.81565093994141 C 108.7672424316406 68.86686706542969 108.8109817504883 68.91086578369141 108.8546295166016 68.95453643798828 C 108.8713226318359 68.97536468505859 108.9064559936523 69.02803039550781 108.9301223754883 69.06349182128906 C 109.0001220703125 69.16841125488281 109.0794677734375 69.28733062744141 109.1859741210938 69.39385223388672 C 109.2629470825195 69.47081756591797 109.3263702392578 69.53423309326172 109.4479370117188 69.70699310302734 C 109.5062942504883 69.90332794189453 109.6117630004883 70.09577941894531 109.7277145385742 70.24506378173828 C 109.7409973144531 70.28054809570312 109.7524948120117 70.32133483886719 109.7724456787109 70.3935546875 C 109.7915191650391 70.46258544921875 109.8143844604492 70.54534912109375 109.8478164672852 70.65055084228516 C 109.8656616210938 70.75925445556641 109.89794921875 70.85691833496094 109.9256362915039 70.94065093994141 C 109.9303970336914 70.95506286621094 109.9364929199219 70.97348022460938 109.9416351318359 70.98960113525391 L 109.9416351318359 71.09970855712891 L 110.0208206176758 71.25807189941406 C 110.0399169921875 71.29624176025391 110.0433349609375 71.30873107910156 110.0433654785156 71.30885314941406 C 110.0501251220703 71.33723449707031 110.0501251220703 71.46249389648438 110.0501251220703 71.57301330566406 C 110.0501251220703 71.80335998535156 110.1082305908203 71.97756195068359 110.142951965332 72.08164215087891 C 110.1481704711914 72.09728240966797 110.1548919677734 72.11743927001953 110.1586074829102 72.12989807128906 L 110.1586074829102 72.44035339355469 L 110.1586074829102 116.2268753051758 L 110.1586074829102 116.9768753051758 L 110.9086074829102 116.9768753051758 L 111.9918670654297 116.9768753051758 C 113.4132232666016 116.9768753051758 114.7514724731445 117.5254821777344 115.7601013183594 118.5216445922852 C 116.7606658935547 119.5098495483398 117.3117065429688 120.8118133544922 117.3117065429688 122.1877059936523 C 117.3117065429688 125.1096725463867 114.9749526977539 127.3985443115234 111.9918670654297 127.3985443115234 L 110.9086074829102 127.3985443115234 L 110.1586074829102 127.3985443115234 L 110.1586074829102 128.1485443115234 L 110.1586074829102 136.386474609375 C 110.1586074829102 137.8109130859375 109.6256103515625 139.1284484863281 108.6578369140625 140.0963592529297 C 107.6900329589844 141.0642547607422 106.3726272583008 141.5973205566406 104.9482803344727 141.5973205566406 Z M 99.73694610595703 87.32970428466797 L 98.40291595458984 88.98551177978516 L 76.83457183837891 115.7563323974609 L 75.85122680664062 116.9768753051758 L 77.41860198974609 116.9768753051758 L 98.98694610595703 116.9768753051758 L 99.73694610595703 116.9768753051758 L 99.73694610595703 116.2268753051758 L 99.73694610595703 89.4560546875 L 99.73694610595703 87.32970428466797 Z" stroke="none"/>
        <path d="M 104.9482803344727 140.8473205566406 C 106.1722717285156 140.8473205566406 107.3013305664062 140.3922882080078 108.1274642944336 139.5660552978516 C 108.9536209106445 138.7397918701172 109.4085922241211 137.6106109619141 109.4085922241211 136.386474609375 L 109.4085922241211 126.648551940918 L 111.9918746948242 126.648551940918 C 114.5543975830078 126.648551940918 116.5617065429688 124.6891174316406 116.5617065429688 122.1877059936523 C 116.5617065429688 121.013916015625 116.0898590087891 119.9014587402344 115.2330856323242 119.0552597045898 C 114.3657379150391 118.1986389160156 113.2146530151367 117.7268753051758 111.9918746948242 117.7268753051758 L 109.4085922241211 117.7268753051758 L 109.4085922241211 72.24895477294922 C 109.3632507324219 72.10574340820312 109.3001251220703 71.87003326416016 109.3001251220703 71.57302093505859 C 109.3001251220703 71.54755401611328 109.3001251220703 71.51980590820312 109.3000411987305 71.49354553222656 L 109.1916427612305 71.27676391601562 L 109.1916427612305 71.10913848876953 C 109.1663818359375 71.03037261962891 109.138671875 70.93634033203125 109.1177139282227 70.82878875732422 C 109.0880279541016 70.73265838623047 109.0665740966797 70.65499877929688 109.0495147705078 70.59327697753906 C 109.0486526489258 70.59013366699219 109.0477600097656 70.58692932128906 109.0468597412109 70.58367156982422 C 108.9411544799805 70.42905426025391 108.843376159668 70.24862670898438 108.771354675293 70.05226898193359 C 108.7276611328125 69.99618530273438 108.6969451904297 69.96546936035156 108.6556701660156 69.9241943359375 C 108.4967269897461 69.7652587890625 108.3866195678711 69.60022735595703 108.3062210083008 69.47972869873047 C 108.2980880737305 69.46753692626953 108.2884368896484 69.45307159423828 108.2798004150391 69.44027709960938 C 108.2497863769531 69.41016387939453 108.2186813354492 69.37886810302734 108.1843414306641 69.34431457519531 C 108.1642379760742 69.3240966796875 108.1429901123047 69.30271911621094 108.1201477050781 69.27975463867188 L 107.1330718994141 69.27975463867188 L 107.1330718994141 68.59832763671875 L 107.0936508178711 68.57862091064453 L 106.9660110473633 68.45098114013672 C 106.9551010131836 68.44322204589844 106.9436111450195 68.43522644042969 106.9317092895508 68.42679595947266 C 106.8835754394531 68.39271545410156 106.826530456543 68.35232543945312 106.7630844116211 68.30445098876953 L 106.6527938842773 68.30445098876953 L 106.4035186767578 68.17982482910156 C 106.3860397338867 68.17582702636719 106.3658065795898 68.17136383056641 106.3489151000977 68.16764068603516 C 106.256477355957 68.14725494384766 106.133544921875 68.12015533447266 105.996223449707 68.07334136962891 C 105.8504104614258 68.05933380126953 105.6975708007812 68.03191375732422 105.5303802490234 67.97900390625 L 104.3081893920898 67.97900390625 C 104.1132354736328 68.04236602783203 103.9303359985352 68.06871032714844 103.7847442626953 68.07967376708984 C 103.7611846923828 68.08609008789062 103.7384796142578 68.09208679199219 103.7167358398438 68.09768676757812 L 103.5758895874023 68.23851776123047 L 103.3797607421875 68.62886047363281 L 102.6045608520508 68.62886047363281 C 102.5370635986328 68.67866516113281 102.4739532470703 68.72079467773438 102.4197845458984 68.75694274902344 C 102.4064712524414 68.76583099365234 102.3904495239258 68.77652740478516 102.3768005371094 68.7857666015625 C 102.2356185913086 68.92167663574219 102.0701599121094 69.05877685546875 101.8428497314453 69.18567657470703 C 101.7703857421875 69.27677917480469 101.7018661499023 69.35134124755859 101.6420974731445 69.41306304931641 C 101.5294494628906 69.57858276367188 101.4057769775391 69.70754241943359 101.2786026000977 69.80789184570312 L 61.3591423034668 119.4371109008789 C 60.58187103271484 120.4212417602539 60.23611068725586 121.6130523681641 60.38537216186523 122.7937088012695 C 60.52795028686523 123.9214706420898 61.12562942504883 124.9371032714844 62.06832885742188 125.6535186767578 L 62.11789703369141 125.6911849975586 L 62.16416168212891 125.7328186035156 C 62.84885025024414 126.3490142822266 63.72609329223633 126.648551940918 64.84603118896484 126.648551940918 L 100.4869384765625 126.648551940918 L 100.4869384765625 136.386474609375 C 100.4869384765625 137.6106109619141 100.9419403076172 138.7397918701172 101.7681427001953 139.5659790039062 C 102.5944061279297 140.3922576904297 103.7238082885742 140.8473205566406 104.9482803344727 140.8473205566406 M 100.4869384765625 85.20335388183594 L 100.4869384765625 117.7268753051758 L 74.28385162353516 117.7268753051758 L 100.4869384765625 85.20335388183594 M 104.9482803344727 142.3473205566406 C 101.5879211425781 142.3473205566406 98.9869384765625 139.7458038330078 98.9869384765625 136.386474609375 L 98.9869384765625 128.1485443115234 L 64.84603118896484 128.1485443115234 C 63.54579544067383 128.1485443115234 62.24505233764648 127.823616027832 61.16073989868164 126.847785949707 C 58.45126342773438 124.7886962890625 58.12685012817383 121.1044311523438 60.18595123291016 118.5024032592773 L 100.2876968383789 68.64657592773438 C 100.3961639404297 68.64657592773438 100.3961639404297 68.53809356689453 100.5046539306641 68.43013000488281 C 100.6131286621094 68.32164764404297 100.7216186523438 68.21316528320312 100.8300933837891 67.99620819091797 C 101.1539916992188 67.88771820068359 101.2624588012695 67.77975463867188 101.370964050293 67.67127227783203 C 101.4794540405273 67.56330871582031 101.696403503418 67.45430755615234 101.8048858642578 67.3458251953125 C 102.0218505859375 67.23734283447266 102.1303405761719 67.12886047363281 102.4547424316406 67.12886047363281 C 102.5632247924805 66.91294097900391 102.6717071533203 66.80445098876953 102.888671875 66.80445098876953 C 102.9971618652344 66.69597625732422 103.2141265869141 66.69597625732422 103.5395584106445 66.58748626708984 C 103.648063659668 66.58748626708984 103.8634643554688 66.58748626708984 103.9719390869141 66.47900390625 L 105.8151092529297 66.47900390625 C 106.0320739746094 66.58748626708984 106.1405639648438 66.58748626708984 106.3575286865234 66.58748626708984 C 106.4644470214844 66.69597625732422 106.7898864746094 66.69597625732422 107.0068588256836 66.80445098876953 C 107.1153411865234 66.80445098876953 107.3323059082031 66.91294097900391 107.4407958984375 66.91294097900391 C 107.6577606201172 67.12886047363281 107.8736877441406 67.23734283447266 107.9821701049805 67.3458251953125 C 108.1991424560547 67.45430755615234 108.3076171875 67.56330871582031 108.5245819091797 67.67127227783203 C 108.5245819091797 67.67127227783203 108.6330718994141 67.67127227783203 108.6330718994141 67.77975463867188 C 108.7415542602539 67.77975463867188 108.9585189819336 67.88771820068359 108.9585189819336 67.99620819091797 C 109.1754760742188 68.21316528320312 109.2823944091797 68.32164764404297 109.3908843994141 68.43013000488281 C 109.4993591308594 68.53809356689453 109.6078491210938 68.75506591796875 109.7163314819336 68.86354064941406 C 109.8248138427734 68.97203063964844 109.9333038330078 69.08050537109375 110.150276184082 69.40544128417969 C 110.150276184082 69.513916015625 110.2587432861328 69.73088073730469 110.3672256469727 69.83937072753906 C 110.4757080078125 70.0552978515625 110.4757080078125 70.16429901123047 110.5841979980469 70.48975372314453 C 110.5841979980469 70.59719848632812 110.6916427612305 70.81416320800781 110.6916427612305 70.92263793945312 C 110.8001251220703 71.13961029052734 110.8001251220703 71.24755859375 110.8001251220703 71.57302093505859 C 110.8001251220703 71.78998565673828 110.9085922241211 71.89846038818359 110.9085922241211 72.11490631103516 L 110.9085922241211 116.2268753051758 L 111.9918746948242 116.2268753051758 C 115.3527755737305 116.2268753051758 118.0617065429688 118.9363479614258 118.0617065429688 122.1877059936523 C 118.0617065429688 125.5475616455078 115.3527755737305 128.1485443115234 111.9918746948242 128.1485443115234 L 110.9085922241211 128.1485443115234 L 110.9085922241211 136.386474609375 C 110.9085922241211 139.7458038330078 108.3076171875 142.3473205566406 104.9482803344727 142.3473205566406 Z M 98.9869384765625 89.4560546875 L 77.41860961914062 116.2268753051758 L 98.9869384765625 116.2268753051758 L 98.9869384765625 89.4560546875 Z" stroke="none" fill="#555"/>
      </g>
    </g>
    <g id="Group_23" data-name="Group 23" transform="translate(129.752 66.479)">
      <g id="Group_22" data-name="Group 22" transform="translate(0.001 0.002)">
        <path id="Path_72" data-name="Path 72" d="M247.157,82.639a30.69,30.69,0,0,0-4.24-5.16,1.869,1.869,0,0,0-.187-.182.459.459,0,0,0-.055-.055,2.126,2.126,0,0,0-.154-.16c-.138-.148-.286-.287-.429-.429a.2.2,0,0,0-.039-.033l-.148-.149a.607.607,0,0,0-.055-.055,2.116,2.116,0,0,0-.154-.159c-.138-.149-.286-.287-.43-.43a.219.219,0,0,0-.038-.033l-.148-.148a.553.553,0,0,0-.055-.055,2.141,2.141,0,0,0-.155-.16c-.138-.148-.286-.286-.429-.429a.22.22,0,0,0-.038-.033l-.149-.148a.456.456,0,0,0-.055-.055,2.033,2.033,0,0,0-.154-.16c-.138-.149-.287-.287-.429-.43a.214.214,0,0,0-.039-.033,1.258,1.258,0,0,0-.148-.149.55.55,0,0,0-.055-.055c-4.351-4.488-10.028-7.456-16.394-7.456-8.563,0-15.606,5.094-20.16,12.027-4.769,6.939-7.258,15.937-7.369,25.9.11,9.863,2.6,18.965,7.369,25.9a32.137,32.137,0,0,0,4.2,5.088c.072.072.143.138.215.209a.07.07,0,0,1,.028.028c.127.132.258.259.385.386.066.072.132.138.2.2s.143.138.215.209a.067.067,0,0,1,.027.028c.127.132.259.258.386.386.066.072.132.138.2.2s.143.138.214.209a.068.068,0,0,1,.028.028c.126.132.258.259.385.386.066.072.132.138.2.2s.143.138.215.21a.067.067,0,0,1,.027.027c.127.132.259.258.386.385.066.072.132.138.2.2s.143.138.214.209a.064.064,0,0,1,.028.028c.127.132.259.259.386.386,4.284,4.279,9.808,7.148,16.163,7.148,8.343,0,15.5-5.2,20.05-12.033,4.659-6.938,7.264-16.041,7.264-25.9C254.421,98.576,251.816,89.578,247.157,82.639Zm-14.1,40.96c-3.144,4.659-6.719,6.718-10.078,6.718a9.951,9.951,0,0,1-5.716-1.966c-.154-.2-.3-.407-.452-.622-3.034-4.554-5.2-11.487-5.2-19.186a35.957,35.957,0,0,1,5.2-19.291c3.254-4.554,6.939-6.719,10.3-6.614a9.069,9.069,0,0,1,5.441,1.779c.171.231.341.462.507.7a35.957,35.957,0,0,1,5.2,19.291C238.259,112.112,236.089,119.045,233.055,123.6Z" transform="translate(-195.448 -66.482)" fill="#dfebff"/>
        <path id="Path_73" data-name="Path 73" d="M247.157,82.639a30.69,30.69,0,0,0-4.24-5.16,1.869,1.869,0,0,0-.187-.182.459.459,0,0,0-.055-.055,2.126,2.126,0,0,0-.154-.16c-.138-.148-.286-.287-.429-.429a.2.2,0,0,0-.039-.033l-.148-.149a.607.607,0,0,0-.055-.055,2.116,2.116,0,0,0-.154-.159c-.138-.149-.286-.287-.43-.43a.219.219,0,0,0-.038-.033l-.148-.148a.553.553,0,0,0-.055-.055,2.141,2.141,0,0,0-.155-.16c-.138-.148-.286-.286-.429-.429a.22.22,0,0,0-.038-.033l-.149-.148a.456.456,0,0,0-.055-.055,2.033,2.033,0,0,0-.154-.16c-.138-.149-.287-.287-.429-.43a.214.214,0,0,0-.039-.033,1.258,1.258,0,0,0-.148-.149.55.55,0,0,0-.055-.055c-4.351-4.488-10.028-7.456-16.394-7.456-8.563,0-15.606,5.094-20.16,12.027-4.769,6.939-7.258,15.937-7.369,25.9.11,9.863,2.6,18.965,7.369,25.9a32.137,32.137,0,0,0,4.2,5.088c.072.072.143.138.215.209a.07.07,0,0,1,.028.028c.127.132.258.259.385.386.066.072.132.138.2.2s.143.138.215.209a.067.067,0,0,1,.027.028c.127.132.259.258.386.386.066.072.132.138.2.2s.143.138.214.209a.068.068,0,0,1,.028.028c.126.132.258.259.385.386.066.072.132.138.2.2s.143.138.215.21a.067.067,0,0,1,.027.027c.127.132.259.258.386.385.066.072.132.138.2.2s.143.138.214.209a.064.064,0,0,1,.028.028c.127.132.259.259.386.386,4.284,4.279,9.808,7.148,16.163,7.148,8.343,0,15.5-5.2,20.05-12.033,4.659-6.938,7.264-16.041,7.264-25.9C254.421,98.576,251.816,89.578,247.157,82.639Zm-14.1,40.96c-3.144,4.659-6.719,6.718-10.078,6.718a9.951,9.951,0,0,1-5.716-1.966c-.154-.2-.3-.407-.452-.622-3.034-4.554-5.2-11.487-5.2-19.186a35.957,35.957,0,0,1,5.2-19.291c3.254-4.554,6.939-6.719,10.3-6.614a9.069,9.069,0,0,1,5.441,1.779c.171.231.341.462.507.7a35.957,35.957,0,0,1,5.2,19.291C238.259,112.112,236.089,119.045,233.055,123.6Z" transform="translate(-195.448 -66.482)" fill="#dfebff" opacity="0.1"/>
      </g>
      <g id="Path_74" data-name="Path 74" transform="translate(-195.447 -66.479)" fill="#dfebff">
        <path d="M 222.9756469726562 141.5973205566406 C 219.0524597167969 141.5973205566406 215.2902526855469 140.47412109375 211.7935028076172 138.2589111328125 C 208.6441192626953 136.2637481689453 205.7559204101562 133.3733520507812 203.441162109375 129.9001922607422 L 203.4381713867188 129.8956756591797 L 203.4350891113281 129.8912048339844 C 201.128662109375 126.5367431640625 199.3357696533203 122.6229934692383 198.1062164306641 118.258674621582 C 196.8938293457031 113.9552688598633 196.2515106201172 109.2969131469727 196.1970672607422 104.4135131835938 C 196.3063812255859 94.47248077392578 198.8091735839844 85.66249847412109 203.4350891113281 78.93460083007812 L 203.439697265625 78.92789459228516 L 203.4441528320312 78.92108917236328 C 205.7391204833984 75.42317199707031 208.6256408691406 72.52082061767578 211.7916870117188 70.52780151367188 C 215.2689361572266 68.33888244628906 219.0317687988281 67.22900390625 222.9756469726562 67.22900390625 C 226.8297882080078 67.22900390625 230.5471496582031 68.33888244628906 234.0244750976562 70.52780151367188 C 237.2202911376953 72.53953552246094 240.1167907714844 75.44194030761719 242.4008483886719 78.9212646484375 L 242.4030303955078 78.92459106445312 L 242.4052581787109 78.92790222167969 C 244.6968231201172 82.33907318115234 246.4727478027344 86.24160003662109 247.6837005615234 90.52706146240234 C 248.9143829345703 94.88232421875 249.5383758544922 99.55428314208984 249.5383758544922 104.4131546020508 C 249.5383758544922 109.2312622070312 248.9143218994141 113.8895721435547 247.6835327148438 118.2586898803711 C 246.4660491943359 122.5806121826172 244.6901702880859 126.4966125488281 242.4052581787109 129.8979034423828 C 240.1004486083984 133.3541870117188 237.2022857666016 136.24462890625 234.0226593017578 138.2589111328125 C 230.5258331298828 140.47412109375 226.80908203125 141.5973205566406 222.9756469726562 141.5973205566406 Z M 222.7350006103516 77.75579071044922 C 219.0486297607422 77.75579071044922 215.2610168457031 80.21644592285156 212.0698547363281 84.68447113037109 L 212.0604705810547 84.69760894775391 L 212.0516662597656 84.71114349365234 C 208.6675415039062 89.90858459472656 206.7266540527344 97.08969116210938 206.7266540527344 104.4131546020508 C 206.7266540527344 111.7889556884766 208.669189453125 118.9328155517578 212.05615234375 124.0129852294922 L 212.0605316162109 124.0195617675781 L 212.0650634765625 124.0260391235352 C 215.2320404052734 128.56591796875 219.1068420410156 131.0661315917969 222.9756469726562 131.0661315917969 C 225.6881713867188 131.0661315917969 229.7466430664062 129.8430633544922 233.6769714355469 124.0163497924805 C 237.0652313232422 118.9342803955078 239.0071868896484 111.7904205322266 239.0071868896484 104.4131546020508 C 239.0071868896484 97.08819580078125 237.0668487548828 89.90708160400391 233.6837158203125 84.71114349365234 L 233.6781463623047 84.70258331298828 L 233.6723327636719 84.69417572021484 C 230.5823364257812 80.21989440917969 226.8689117431641 77.75579071044922 223.2161102294922 77.75579071044922 C 223.1362762451172 77.75579071044922 223.0554962158203 77.75698089599609 222.9756469726562 77.75931549072266 C 222.8957824707031 77.75698089599609 222.8149566650391 77.75579071044922 222.7350006103516 77.75579071044922 Z" stroke="none"/>
        <path d="M 222.9756469726562 67.97900390625 C 219.1753692626953 67.97900390625 215.5469665527344 69.05009460449219 212.1912384033203 71.16252136230469 C 209.1155090332031 73.09867858886719 206.3076477050781 75.92381286621094 204.0712432861328 79.33251953125 L 204.0531005859375 79.35952758789062 C 199.5132446289062 85.96226501464844 197.0561828613281 94.62505340576172 196.9471130371094 104.412971496582 C 197.0013427734375 109.2278747558594 197.6341857910156 113.8174362182617 198.828125 118.0552978515625 C 200.0353546142578 122.3404159545898 201.7932891845703 126.1796264648438 204.0531005859375 129.4662780761719 L 204.0652618408203 129.4842529296875 C 206.322265625 132.8707580566406 209.1334381103516 135.6859130859375 212.1948699951172 137.6253509521484 C 215.5696563720703 139.7633056640625 219.1968231201172 140.8473205566406 222.9756469726562 140.8473205566406 C 226.6647338867188 140.8473205566406 230.2464294433594 139.7632751464844 233.6212921142578 137.6253356933594 C 236.7130126953125 135.6667633056641 239.5341949462891 132.8515014648438 241.7798461914062 129.4839324951172 L 241.7826843261719 129.4796752929688 C 244.0232543945312 126.1443939208984 245.7657012939453 122.3006973266602 246.9616241455078 118.0553283691406 C 248.1737670898438 113.7523956298828 248.7883758544922 109.1625061035156 248.7883758544922 104.4131546020508 C 248.7883758544922 99.62323760986328 248.1738739013672 95.01990509033203 246.9619598388672 90.73101043701172 C 245.7725830078125 86.52188110351562 244.0300140380859 82.69145202636719 241.7826843261719 79.34613037109375 L 241.7738800048828 79.33283996582031 C 239.5483551025391 75.94268798828125 236.7304992675781 73.117431640625 233.6249237060547 71.16252136230469 C 230.2691345214844 69.05009460449219 226.6861877441406 67.97900390625 222.9756469726562 67.97900390625 M 222.9755859375 77.00901794433594 C 223.0556030273438 77.00688171386719 223.1363067626953 77.00579833984375 223.2162170410156 77.00579833984375 C 227.1228790283203 77.00602722167969 231.0554351806641 79.58512878417969 234.2894744873047 84.26797485351562 L 234.3122253417969 84.30191040039062 C 237.7725677490234 89.61643218994141 239.7571868896484 96.94668579101562 239.7571868896484 104.4131546020508 C 239.7571868896484 111.9347381591797 237.7693023681641 119.2302474975586 234.3032684326172 124.4290161132812 L 234.2987518310547 124.4357528686523 C 230.1840972900391 130.5357055664062 225.8701019287109 131.8161315917969 222.9756469726562 131.8161315917969 C 218.8545379638672 131.8161315917969 214.7612915039062 129.2019500732422 211.4499359130859 124.4551544189453 L 211.4321136474609 124.4290161132812 C 207.965087890625 119.2287750244141 205.9766540527344 111.9332733154297 205.9766540527344 104.4131546020508 C 205.9766540527344 96.94819641113281 207.9618225097656 89.61792755126953 211.4231567382812 84.30191040039062 L 211.4595336914062 84.24856567382812 C 214.7953796386719 79.5780029296875 218.7997283935547 77.00579833984375 222.7349853515625 77.00579833984375 C 222.8147735595703 77.00579833984375 222.8954925537109 77.00688171386719 222.9755859375 77.00901794433594 M 222.9756469726562 66.47900390625 C 231.3220672607422 66.47900390625 238.4741516113281 71.57301330566406 243.0278167724609 78.50967407226562 C 247.6873931884766 85.44581604003906 250.2883758544922 94.44157409667969 250.2883758544922 104.4131546020508 C 250.2883758544922 114.2757415771484 247.6873931884766 123.3799743652344 243.0278167724609 130.3161315917969 C 238.4741516113281 137.1448059082031 231.3220672607422 142.3473205566406 222.9756469726562 142.3473205566406 C 214.4132995605469 142.3473205566406 207.3681640625 137.1448059082031 202.8170776367188 130.3161315917969 C 198.0479888916016 123.3799743652344 195.5554962158203 114.2757415771484 195.447021484375 104.4131546020508 C 195.5554962158203 94.44157409667969 198.0479888916016 85.44581604003906 202.8170776367188 78.50967407226562 C 207.3681640625 71.57301330566406 214.4132995605469 66.47900390625 222.9756469726562 66.47900390625 Z M 222.9756469726562 78.50967407226562 C 219.6157379150391 78.40130615234375 215.9310455322266 80.56877136230469 212.68017578125 85.12037658691406 C 209.645263671875 89.781494140625 207.4766540527344 96.60967254638672 207.4766540527344 104.4131546020508 C 207.4766540527344 112.1086807250977 209.645263671875 119.0448303222656 212.68017578125 123.5969390869141 C 215.9310302734375 128.2570190429688 219.6152954101562 130.3161315917969 222.9756469726562 130.3161315917969 C 226.3360137939453 130.3161315917969 229.9118041992188 128.2570190429688 233.0552062988281 123.5969390869141 C 236.0901184082031 119.0448303222656 238.2571868896484 112.1086807250977 238.2571868896484 104.4131546020508 C 238.2571868896484 96.60967254638672 236.0901184082031 89.781494140625 233.0552062988281 85.12037658691406 C 229.9117889404297 80.56877136230469 226.3359527587891 78.4010009765625 222.9756469726562 78.50967407226562 Z" stroke="none" fill="#555"/>
      </g>
    </g>
    <g id="Group_25" data-name="Group 25" transform="translate(193.941 66.479)">
      <g id="Group_24" data-name="Group 24" transform="translate(0.003 0.002)">
        <path id="Path_75" data-name="Path 75" d="M380.475,121.925c0-.005,0-.005-.006-.005-.132-.143-.27-.281-.407-.407,0-.006,0-.006-.006-.006-.132-.143-.27-.281-.407-.407,0-.006,0-.006-.006-.006-.132-.143-.269-.281-.407-.407,0-.005,0-.005-.005-.005-.132-.143-.27-.281-.407-.407,0-.006,0-.006-.006-.006-.132-.143-.27-.281-.407-.407,0-.006,0-.006-.006-.006-.132-.143-.269-.281-.407-.407,0-.005,0-.005-.005-.005-.132-.143-.27-.281-.407-.408,0-.005,0-.005-.006-.005-.132-.143-.27-.281-.407-.407,0-.006,0-.006-.006-.006-.132-.143-.27-.281-.407-.407,0-.005,0-.005-.005-.005a5.955,5.955,0,0,0-1.454-1.162v-40.8c0-.214-.1-.324-.1-.539a1.154,1.154,0,0,0-.11-.65c0-.11-.1-.325-.1-.435a4.394,4.394,0,0,0-.22-.65.848.848,0,0,1-.215-.435,2.648,2.648,0,0,0-.435-.54c-.11-.11-.215-.325-.325-.435l-.435-.435c0-.066-.083-.132-.176-.176l-.214-.215-.022-.022c0-.066-.083-.132-.176-.176l-.215-.214-.022-.022c0-.066-.083-.132-.176-.176l-.215-.215-.022-.022c0-.066-.083-.132-.176-.176l-.214-.215-.022-.022c0-.066-.083-.132-.176-.176l-.215-.214-.022-.022c0-.066-.083-.132-.176-.176l-.215-.215-.022-.022c0-.066-.083-.132-.176-.176l-.214-.215-.022-.022c0-.066-.083-.132-.176-.176l-.215-.215-.022-.022c0-.066-.083-.132-.176-.176l-.215-.214-.022-.022c0-.066-.083-.132-.176-.176L369.219,68c0-.1-.215-.215-.325-.215a.108.108,0,0,0-.11-.11c-.215-.1-.325-.215-.54-.325-.11-.111-.325-.215-.54-.435-.11,0-.325-.1-.435-.1-.215-.11-.54-.11-.65-.22a1.016,1.016,0,0,1-.545-.1h-1.84a.673.673,0,0,1-.435.1c-.325.11-.539.11-.65.22-.214,0-.325.1-.435.325a1.17,1.17,0,0,0-.65.215c-.1.11-.325.22-.429.325a1.144,1.144,0,0,1-.546.325,1.48,1.48,0,0,1-.325.435c-.11.11-.11.214-.214.214l-40.1,49.859a5.8,5.8,0,0,0,.54,7.974,23721.689,23721.689,0,0,1,1.239,1.239,458.032,458.032,0,0,1,.826.826,3.7,3.7,0,0,0,.413.413,486.2,486.2,0,0,1,.826.826,3.654,3.654,0,0,0,.413.413,5.764,5.764,0,0,0,.848.782,5.318,5.318,0,0,0,3.684,1.3h30.012v4.108a5.929,5.929,0,0,0,1.938,4.449c.006.006.011.006.011.011a5.545,5.545,0,0,0,.4.4l.017.017q.19.206.4.4c.005.005.011.005.011.011a5.442,5.442,0,0,0,.4.4l.016.017q.19.206.4.4c.006.006.011.006.011.011a5.443,5.443,0,0,0,.4.4l.017.016q.19.207.4.4c.005.006.011.006.011.011a5.647,5.647,0,0,0,.4.4l.017.017q.19.206.4.4c.006.005.011.005.011.011a5.439,5.439,0,0,0,.4.4l.017.017a5.989,5.989,0,0,0,10.375-4.053v-8.238h1.085a5.93,5.93,0,0,0,4.092-10.353ZM359.252,98.714v17.517H345.137Z" transform="translate(-319.116 -66.482)" fill="#dfebff"/>
        <path id="Path_76" data-name="Path 76" d="M380.475,121.925c0-.005,0-.005-.006-.005-.132-.143-.27-.281-.407-.407,0-.006,0-.006-.006-.006-.132-.143-.27-.281-.407-.407,0-.006,0-.006-.006-.006-.132-.143-.269-.281-.407-.407,0-.005,0-.005-.005-.005-.132-.143-.27-.281-.407-.407,0-.006,0-.006-.006-.006-.132-.143-.27-.281-.407-.407,0-.006,0-.006-.006-.006-.132-.143-.269-.281-.407-.407,0-.005,0-.005-.005-.005-.132-.143-.27-.281-.407-.408,0-.005,0-.005-.006-.005-.132-.143-.27-.281-.407-.407,0-.006,0-.006-.006-.006-.132-.143-.27-.281-.407-.407,0-.005,0-.005-.005-.005a5.955,5.955,0,0,0-1.454-1.162v-40.8c0-.214-.1-.324-.1-.539a1.154,1.154,0,0,0-.11-.65c0-.11-.1-.325-.1-.435a4.394,4.394,0,0,0-.22-.65.848.848,0,0,1-.215-.435,2.648,2.648,0,0,0-.435-.54c-.11-.11-.215-.325-.325-.435l-.435-.435c0-.066-.083-.132-.176-.176l-.214-.215-.022-.022c0-.066-.083-.132-.176-.176l-.215-.214-.022-.022c0-.066-.083-.132-.176-.176l-.215-.215-.022-.022c0-.066-.083-.132-.176-.176l-.214-.215-.022-.022c0-.066-.083-.132-.176-.176l-.215-.214-.022-.022c0-.066-.083-.132-.176-.176l-.215-.215-.022-.022c0-.066-.083-.132-.176-.176l-.214-.215-.022-.022c0-.066-.083-.132-.176-.176l-.215-.215-.022-.022c0-.066-.083-.132-.176-.176l-.215-.214-.022-.022c0-.066-.083-.132-.176-.176L369.219,68c0-.1-.215-.215-.325-.215a.108.108,0,0,0-.11-.11c-.215-.1-.325-.215-.54-.325-.11-.111-.325-.215-.54-.435-.11,0-.325-.1-.435-.1-.215-.11-.54-.11-.65-.22a1.016,1.016,0,0,1-.545-.1h-1.84a.673.673,0,0,1-.435.1c-.325.11-.539.11-.65.22-.214,0-.325.1-.435.325a1.17,1.17,0,0,0-.65.215c-.1.11-.325.22-.429.325a1.144,1.144,0,0,1-.546.325,1.48,1.48,0,0,1-.325.435c-.11.11-.11.214-.214.214l-40.1,49.859a5.8,5.8,0,0,0,.54,7.974,23721.689,23721.689,0,0,1,1.239,1.239,458.032,458.032,0,0,1,.826.826,3.7,3.7,0,0,0,.413.413,486.2,486.2,0,0,1,.826.826,3.654,3.654,0,0,0,.413.413,5.764,5.764,0,0,0,.848.782,5.318,5.318,0,0,0,3.684,1.3h30.012v4.108a5.929,5.929,0,0,0,1.938,4.449c.006.006.011.006.011.011a5.545,5.545,0,0,0,.4.4l.017.017q.19.206.4.4c.005.005.011.005.011.011a5.442,5.442,0,0,0,.4.4l.016.017q.19.206.4.4c.006.006.011.006.011.011a5.443,5.443,0,0,0,.4.4l.017.016q.19.207.4.4c.005.006.011.006.011.011a5.647,5.647,0,0,0,.4.4l.017.017q.19.206.4.4c.006.005.011.005.011.011a5.439,5.439,0,0,0,.4.4l.017.017a5.989,5.989,0,0,0,10.375-4.053v-8.238h1.085a5.93,5.93,0,0,0,4.092-10.353ZM359.252,98.714v17.517H345.137Z" transform="translate(-319.116 -66.482)" fill="#dfebff" opacity="0.1"/>
      </g>
      <g id="Path_77" data-name="Path 77" transform="translate(-319.112 -66.479)" fill="#dfebff">
        <path d="M 365.2091064453125 141.5973205566406 C 363.7843017578125 141.5973205566406 362.466552734375 141.0642547607422 361.4986267089844 140.0963134765625 C 360.53076171875 139.1284637451172 359.9977416992188 137.8109436035156 359.9977416992188 136.386474609375 L 359.9977416992188 128.1485443115234 L 359.9977416992188 127.3985443115234 L 359.2477416992188 127.3985443115234 L 325.3233032226562 127.3985443115234 L 325.2148132324219 127.3985443115234 L 325.1063232421875 127.3985443115234 C 323.7927551269531 127.3985443115234 322.751220703125 127.0359954833984 321.922119140625 126.2901840209961 L 321.8990478515625 126.2694320678711 L 321.8743286132812 126.2506484985352 C 320.7693786621094 125.4109191894531 320.0684509277344 124.216194152832 319.9006652832031 122.8865356445312 C 319.7262573242188 121.5040435791016 320.1283874511719 120.1133117675781 321.0330200195312 118.9701995849609 L 361.0155334472656 69.26064300537109 C 361.1287231445312 69.18558502197266 361.2279357910156 69.07958984375 361.3125 68.94306945800781 C 361.31298828125 68.94230651855469 361.3134460449219 68.94153594970703 361.3139343261719 68.94075775146484 C 361.3984375 68.85594177246094 361.4999084472656 68.75074768066406 361.6037902832031 68.59884643554688 C 361.8705749511719 68.47528839111328 362.0231323242188 68.3399658203125 362.1544494628906 68.20924377441406 C 362.1753540039062 68.19247436523438 362.2284545898438 68.15702056884766 362.2642211914062 68.13315582275391 C 362.3371276855469 68.08448028564453 362.4167785644531 68.03131103515625 362.4942932128906 67.96784210205078 C 362.5169982910156 67.95547485351562 362.537841796875 67.94383239746094 362.556640625 67.93334197998047 C 362.6541748046875 67.87886047363281 362.6541748046875 67.87886047363281 362.7139892578125 67.87886047363281 L 363.1764526367188 67.87886047363281 L 363.3394775390625 67.55445098876953 L 363.4586486816406 67.55445098876953 L 363.5945434570312 67.41852569580078 C 363.61181640625 67.41433715820312 363.6298828125 67.41007995605469 363.6456909179688 67.40634155273438 C 363.7189331054688 67.38905334472656 363.812255859375 67.36702728271484 363.9193725585938 67.33553314208984 C 364.0543518066406 67.33003234863281 364.2444152832031 67.30904388427734 364.4334716796875 67.22900390625 L 364.9921264648438 67.22900390625 L 365.2091064453125 67.22900390625 L 365.4234619140625 67.22900390625 L 365.9166564941406 67.22900390625 C 366.1107177734375 67.30432891845703 366.26904296875 67.32735443115234 366.4197387695312 67.33439636230469 C 366.5442810058594 67.38529205322266 366.66748046875 67.41242218017578 366.7708435058594 67.43517303466797 C 366.8257446289062 67.447265625 366.90869140625 67.46553039550781 366.936767578125 67.47739410400391 L 367.0951232910156 67.55656433105469 L 367.2021789550781 67.55525207519531 C 367.2173461914062 67.56016540527344 367.234130859375 67.56575775146484 367.2474670410156 67.57020568847656 C 367.2780456542969 67.58039093017578 367.3104553222656 67.59119415283203 367.3445739746094 67.60169219970703 C 367.4498291015625 67.69016265869141 367.5462036132812 67.75870513916016 367.6238098144531 67.81388092041016 C 367.65625 67.83694458007812 367.7000122070312 67.86806488037109 367.717041015625 67.88204956054688 L 367.7972412109375 67.96223449707031 L 367.906005859375 68.01662445068359 C 367.97216796875 68.04970550537109 368.0238647460938 68.08420562744141 368.0953979492188 68.13196563720703 C 368.1104125976562 68.14198303222656 368.1260375976562 68.15241241455078 368.142333984375 68.16318511962891 L 368.142333984375 68.52975463867188 L 368.690673828125 68.52975463867188 L 368.9892578125 68.82835388183594 L 369.1154479980469 68.95455169677734 C 369.1321411132812 68.97537231445312 369.167236328125 69.02798461914062 369.1908874511719 69.06343078613281 C 369.2609252929688 69.16840362548828 369.34033203125 69.28739166259766 369.4469299316406 69.39397430419922 C 369.5238037109375 69.47085571289062 369.5872192382812 69.53426361083984 369.708740234375 69.70700836181641 C 369.7671203613281 69.90331268310547 369.8725891113281 70.09575653076172 369.988525390625 70.24504089355469 C 370.0018310546875 70.28054046630859 370.0133056640625 70.32132720947266 370.0332946777344 70.39358520507812 C 370.0523376464844 70.46254730224609 370.0751647949219 70.54520416259766 370.1085510253906 70.65025329589844 C 370.1260986328125 70.75777435302734 370.1576232910156 70.85457611083984 370.1846923828125 70.9376220703125 C 370.1895446777344 70.95246887207031 370.1957397460938 70.97152709960938 370.200927734375 70.98802185058594 L 370.200927734375 71.09966278076172 L 370.2800903320312 71.25800323486328 C 370.2988891601562 71.29560089111328 370.3026123046875 71.30868530273438 370.3026428222656 71.30879974365234 C 370.3093872070312 71.33712005615234 370.3093872070312 71.46244049072266 370.3093872070312 71.57301330566406 C 370.3093872070312 71.80337524414062 370.3675231933594 71.97756958007812 370.4022216796875 72.0816650390625 C 370.4074401855469 72.09730529785156 370.4141845703125 72.11744689941406 370.4178771972656 72.12991333007812 L 370.4178771972656 72.44035339355469 L 370.4178771972656 116.2268753051758 L 370.4178771972656 116.9768753051758 L 371.1678771972656 116.9768753051758 L 372.252685546875 116.9768753051758 C 373.6739196777344 116.9768753051758 375.01220703125 117.525505065918 376.0210266113281 118.5216903686523 C 377.0218811035156 119.5099792480469 377.5730590820312 120.8119354248047 377.5730590820312 122.1877059936523 C 377.5730590820312 125.1096725463867 375.236083984375 127.3985443115234 372.252685546875 127.3985443115234 L 371.1678771972656 127.3985443115234 L 370.4178771972656 127.3985443115234 L 370.4178771972656 128.1485443115234 L 370.4178771972656 136.386474609375 C 370.4178771972656 137.8108673095703 369.8849487304688 139.12841796875 368.9172668457031 140.0963897705078 C 367.9496459960938 141.0642852783203 366.6327514648438 141.5973205566406 365.2091064453125 141.5973205566406 Z M 359.9977416992188 87.32984924316406 L 358.6637268066406 88.98548889160156 L 337.0933532714844 115.7563095092773 L 336.1098937988281 116.9768753051758 L 337.6773681640625 116.9768753051758 L 359.2477416992188 116.9768753051758 L 359.9977416992188 116.9768753051758 L 359.9977416992188 116.2268753051758 L 359.9977416992188 89.4560546875 L 359.9977416992188 87.32984924316406 Z" stroke="none"/>
        <path d="M 365.2091064453125 140.8473205566406 C 366.432373046875 140.8473205566406 367.5609130859375 140.3923187255859 368.3868408203125 139.5661468505859 C 369.2129211425781 138.7398071289062 369.6678771972656 137.6105804443359 369.6678771972656 136.386474609375 L 369.6678771972656 126.648551940918 L 372.252685546875 126.648551940918 C 374.8155212402344 126.648551940918 376.8230590820312 124.6891174316406 376.8230590820312 122.1877059936523 C 376.8230590820312 121.0140533447266 376.35107421875 119.9016265869141 375.4940795898438 119.0553588867188 C 374.6264953613281 118.1986770629883 373.4753723144531 117.7268753051758 372.252685546875 117.7268753051758 L 369.6678771972656 117.7268753051758 L 369.6678771972656 72.2490234375 C 369.6225280761719 72.10578918457031 369.5593872070312 71.87004852294922 369.5593872070312 71.57302093505859 C 369.5593872070312 71.54752349853516 369.5593872070312 71.51973724365234 369.5592956542969 71.49345397949219 L 369.450927734375 71.27666473388672 L 369.450927734375 71.10590362548828 C 369.4262084960938 71.02791595458984 369.3990173339844 70.93474578857422 369.3783874511719 70.82823944091797 C 369.3487854003906 70.73237609863281 369.3273620605469 70.65491485595703 369.3103637695312 70.59330749511719 C 369.3094787597656 70.59016418457031 369.30859375 70.58694458007812 369.3077087402344 70.58368682861328 C 369.2020263671875 70.42908477783203 369.1042175292969 70.24859619140625 369.0321655273438 70.05228424072266 C 368.988525390625 69.99623107910156 368.9578552246094 69.96556854248047 368.9167175292969 69.92441558837891 C 368.7576293945312 69.76537322998047 368.6474304199219 69.60022735595703 368.5669860839844 69.47965240478516 C 368.5589294433594 69.46757507324219 368.5493774414062 69.45325469970703 368.5408020019531 69.4405517578125 L 368.3800048828125 69.27975463867188 L 367.392333984375 69.27975463867188 L 367.392333984375 68.59832763671875 L 367.3529968261719 68.57865142822266 L 367.2242736816406 68.44996643066406 C 367.2131042480469 68.44198608398438 367.2013549804688 68.43376159667969 367.1891479492188 68.42508697509766 C 367.1417846679688 68.39141845703125 367.0857543945312 68.35157775878906 367.0234680175781 68.30445098876953 L 366.9136657714844 68.30445098876953 L 366.6644592285156 68.17987823486328 C 366.6469116210938 68.17585754394531 366.6265563964844 68.17137145996094 366.6095581054688 68.16762542724609 C 366.5116882324219 68.14608001708984 366.3886108398438 68.11898040771484 366.2533264160156 68.07313537597656 C 366.1081237792969 68.05905914306641 365.9560241699219 68.03166961669922 365.7896423339844 67.97900390625 L 364.5685424804688 67.97900390625 C 364.3731384277344 68.04243469238281 364.1897583007812 68.06877899169922 364.0438537597656 68.0797119140625 C 364.0203857421875 68.08610534667969 363.9977722167969 68.09207153320312 363.9761047363281 68.09764862060547 L 363.8349304199219 68.23886871337891 L 363.6389465332031 68.62886047363281 L 362.8653869628906 68.62886047363281 C 362.7978820800781 68.67865753173828 362.7347717285156 68.72079467773438 362.6806030273438 68.75694274902344 C 362.6672973632812 68.76582336425781 362.6512756347656 68.77651214599609 362.6376342773438 68.78574371337891 C 362.4960021972656 68.92211151123047 362.329833984375 69.05966186523438 362.1011657714844 69.18685150146484 C 362.0290832519531 69.27737426757812 361.9609375 69.35153198242188 361.9013977050781 69.41300964355469 C 361.7887573242188 69.57852935791016 361.6650085449219 69.70756530761719 361.537841796875 69.80791473388672 L 321.61962890625 119.4375457763672 C 320.8420715332031 120.4210510253906 320.495849609375 121.6124114990234 320.644775390625 122.7926406860352 C 320.787109375 123.9207153320312 321.3849487304688 124.9367294311523 322.328125 125.6535186767578 L 322.3775329589844 125.6910705566406 L 322.4237060546875 125.7325820922852 C 323.10888671875 126.3489379882812 323.9863586425781 126.648551940918 325.1063232421875 126.648551940918 L 360.7477416992188 126.648551940918 L 360.7477416992188 136.386474609375 C 360.7477416992188 137.6106109619141 361.2027587890625 138.7397918701172 362.0289611816406 139.5659790039062 C 362.855224609375 140.3922576904297 363.984619140625 140.8473205566406 365.2091064453125 140.8473205566406 M 360.7477416992188 85.20365905761719 L 360.7477416992188 117.7268753051758 L 334.5424194335938 117.7268753051758 L 360.7477416992188 85.20365905761719 M 365.2091064453125 142.3473205566406 C 361.8487548828125 142.3473205566406 359.2477416992188 139.7458038330078 359.2477416992188 136.386474609375 L 359.2477416992188 128.1485443115234 L 325.1063232421875 128.1485443115234 C 323.8045654296875 128.1485443115234 322.5053405761719 127.823616027832 321.4205322265625 126.847785949707 C 318.7110595703125 124.7886962890625 318.3856201171875 121.1044311523438 320.44677734375 118.5024032592773 L 360.5469360351562 68.64657592773438 C 360.6554260253906 68.64657592773438 360.6554260253906 68.53809356689453 360.763916015625 68.43013000488281 C 360.8723754882812 68.32164764404297 360.9808959960938 68.21316528320312 361.08935546875 67.99620819091797 C 361.414794921875 67.88771820068359 361.5233154296875 67.77975463867188 361.6317749023438 67.67127227783203 C 361.7402648925781 67.56330871582031 361.9572143554688 67.45430755615234 362.0657043457031 67.3458251953125 C 362.2826538085938 67.23734283447266 362.3911743164062 67.12886047363281 362.7139892578125 67.12886047363281 C 362.822509765625 66.91294097900391 362.9309692382812 66.80445098876953 363.14794921875 66.80445098876953 C 363.2564086914062 66.69597625732422 363.473388671875 66.69597625732422 363.798828125 66.58748626708984 C 363.9073181152344 66.58748626708984 364.124267578125 66.58748626708984 364.2327575683594 66.47900390625 L 366.0743713378906 66.47900390625 C 366.2913208007812 66.58748626708984 366.3998413085938 66.58748626708984 366.6167907714844 66.58748626708984 C 366.7252807617188 66.69597625732422 367.0507202148438 66.69597625732422 367.2677001953125 66.80445098876953 C 367.3761596679688 66.80445098876953 367.5931396484375 66.91294097900391 367.7015991210938 66.91294097900391 C 367.9185791015625 67.12886047363281 368.1329345703125 67.23734283447266 368.241455078125 67.3458251953125 C 368.4584045410156 67.45430755615234 368.56689453125 67.56330871582031 368.7838439941406 67.67127227783203 C 368.7838439941406 67.67127227783203 368.892333984375 67.67127227783203 368.892333984375 67.77975463867188 C 369.0007934570312 67.77975463867188 369.2177734375 67.88771820068359 369.2177734375 67.99620819091797 C 369.4347534179688 68.21316528320312 369.543212890625 68.32164764404297 369.6517028808594 68.43013000488281 C 369.7601928710938 68.53809356689453 369.86865234375 68.75506591796875 369.9771728515625 68.86354064941406 C 370.0856323242188 68.97203063964844 370.1941223144531 69.08050537109375 370.4110717773438 69.40544128417969 C 370.4110717773438 69.513916015625 370.5195922851562 69.73088073730469 370.6280517578125 69.83937072753906 C 370.7365417480469 70.0552978515625 370.7365417480469 70.16429901123047 370.8450317382812 70.48975372314453 C 370.8450317382812 70.59719848632812 370.950927734375 70.81416320800781 370.950927734375 70.92263793945312 C 371.0593872070312 71.13961029052734 371.0593872070312 71.24755859375 371.0593872070312 71.57302093505859 C 371.0593872070312 71.78998565673828 371.1678771972656 71.89846038818359 371.1678771972656 72.11490631103516 L 371.1678771972656 116.2268753051758 L 372.252685546875 116.2268753051758 C 375.6130676269531 116.2268753051758 378.3230590820312 118.9363479614258 378.3230590820312 122.1877059936523 C 378.3230590820312 125.5475616455078 375.6130676269531 128.1485443115234 372.252685546875 128.1485443115234 L 371.1678771972656 128.1485443115234 L 371.1678771972656 136.386474609375 C 371.1678771972656 139.7458038330078 368.56689453125 142.3473205566406 365.2091064453125 142.3473205566406 Z M 359.2477416992188 89.4560546875 L 337.6773681640625 116.2268753051758 L 359.2477416992188 116.2268753051758 L 359.2477416992188 89.4560546875 Z" stroke="none" fill="#555"/>
      </g>
    </g>
  </g>
</svg>
