<svg width="24" height="24" viewBox="0 0 24 24" fill="none" xmlns="http://www.w3.org/2000/svg">
<path fill-rule="evenodd" clip-rule="evenodd" d="M13.7858 22.2222H4.22222C3.63289 22.2222 3.06755 21.9884 2.65066 21.5716C2.23377 21.1547 2 20.5893 2 20C2 15.9822 2 6.24 2 2.22222C2 1.63289 2.23377 1.06756 2.65066 0.650667C3.06755 0.233778 3.63289 0 4.22222 0H14C14.1298 0 14.2533 0.0568882 14.3378 0.155555L19.6711 6.37778C19.7396 6.45778 19.7778 6.56089 19.7778 6.66667V14.7564C21.36 15.5662 22.4444 17.2133 22.4444 19.1111C22.4444 21.8098 20.2542 24 17.5556 24C16.0391 24 14.6827 23.3076 13.7858 22.2222ZM17.5556 15.1111C19.7636 15.1111 21.5556 16.9031 21.5556 19.1111C21.5556 21.3191 19.7636 23.1111 17.5556 23.1111C15.3476 23.1111 13.5556 21.3191 13.5556 19.1111C13.5556 16.9031 15.3476 15.1111 17.5556 15.1111ZM17.1111 18.4062L16.6124 18.9049C16.4391 19.0782 16.1573 19.0782 15.984 18.9049C15.8107 18.7316 15.8107 18.4498 15.984 18.2764L17.2409 17.0187C17.4151 16.8453 17.696 16.8453 17.8702 17.0187L19.1271 18.2764C19.3004 18.4498 19.3004 18.7316 19.1271 18.9049C18.9538 19.0782 18.672 19.0782 18.4987 18.9049L18 18.4062V20.8889C18 21.1342 17.8009 21.3333 17.5556 21.3333C17.3102 21.3333 17.1111 21.1342 17.1111 20.8889V18.4062ZM13.5556 0.888889H4.22222C3.86844 0.888889 3.52977 1.02933 3.27911 1.27911C3.02933 1.52978 2.88889 1.86844 2.88889 2.22222V20C2.88889 20.3538 3.02933 20.6924 3.27911 20.9431C3.52977 21.1929 3.86844 21.3333 4.22222 21.3333H13.2009C12.8596 20.6667 12.6667 19.9111 12.6667 19.1111C12.6667 16.4124 14.8569 14.2222 17.5556 14.2222C18.0178 14.2222 18.4649 14.2862 18.8889 14.4062V7.11111H15.7778C14.5502 7.11111 13.5556 6.11644 13.5556 4.88889V0.888889ZM6 12.4444H15.7778C16.0231 12.4444 16.2222 12.2453 16.2222 12C16.2222 11.7547 16.0231 11.5556 15.7778 11.5556H6C5.75467 11.5556 5.55556 11.7547 5.55556 12C5.55556 12.2453 5.75467 12.4444 6 12.4444ZM6 9.77778H15.7778C16.0231 9.77778 16.2222 9.57867 16.2222 9.33333C16.2222 9.088 16.0231 8.88889 15.7778 8.88889H6C5.75467 8.88889 5.55556 9.088 5.55556 9.33333C5.55556 9.57867 5.75467 9.77778 6 9.77778ZM6 7.11111H10.4444C10.6898 7.11111 10.8889 6.912 10.8889 6.66667C10.8889 6.42133 10.6898 6.22222 10.4444 6.22222H6C5.75467 6.22222 5.55556 6.42133 5.55556 6.66667C5.55556 6.912 5.75467 7.11111 6 7.11111ZM14.4444 1.64622V4.88889C14.4444 5.62489 15.0418 6.22222 15.7778 6.22222H18.3671L14.4444 1.64622Z" fill="#9E9C98"/>
</svg>
