<svg width="24" height="24" viewBox="0 0 24 24" fill="none" xmlns="http://www.w3.org/2000/svg">
<circle cx="12" cy="12" r="12" fill="#FED402" fill-opacity="0.24"/>
<path d="M12.0002 6.53076C10.7352 6.53078 9.50926 6.96944 8.53137 7.772C7.55349 8.57455 6.88413 9.69135 6.63735 10.9321C6.39056 12.1728 6.58163 13.4608 7.17798 14.5764C7.77434 15.6921 8.73909 16.5665 9.90785 17.0506C11.0766 17.5347 12.3771 17.5986 13.5876 17.2313C14.7982 16.8641 15.844 16.0885 16.5468 15.0366C17.2497 13.9848 17.566 12.7218 17.442 11.4628C17.318 10.2038 16.7613 9.02683 15.8668 8.1323C15.3596 7.62377 14.7569 7.22049 14.0933 6.94564C13.4298 6.67079 12.7184 6.5298 12.0002 6.53076ZM15.5133 15.5119C14.7007 16.3242 13.6316 16.8296 12.4881 16.9421C11.3446 17.0545 10.1975 16.767 9.24218 16.1285C8.2869 15.49 7.58254 14.5401 7.2491 13.4405C6.91566 12.341 6.97377 11.1598 7.41354 10.0983C7.8533 9.03677 8.64752 8.16056 9.66086 7.61894C10.6742 7.07732 11.844 6.9038 12.9709 7.12794C14.0979 7.35208 15.1122 7.96002 15.8412 8.84818C16.5702 9.73634 16.9687 10.8498 16.9688 11.9988C16.9696 12.6514 16.8414 13.2977 16.5917 13.9006C16.3419 14.5035 15.9754 15.0511 15.5133 15.5119ZM15.5488 13.7571C15.248 14.2973 14.8199 14.7558 14.3017 15.093C13.7835 15.4302 13.1908 15.6359 12.5751 15.6921C11.9594 15.7483 11.3393 15.6535 10.7686 15.4157C10.1979 15.178 9.69378 14.8046 9.30008 14.3279C8.90639 13.8512 8.63498 13.2856 8.50942 12.6802C8.38385 12.0748 8.40791 11.448 8.57952 10.854C8.75113 10.26 9.0651 9.71692 9.49418 9.2718C9.92326 8.82668 10.4545 8.493 11.0418 8.29971C11.0733 8.28929 11.1071 8.28786 11.1393 8.29559C11.1716 8.30331 11.2011 8.31989 11.2245 8.34345C11.2478 8.36701 11.2642 8.39662 11.2717 8.42896C11.2791 8.46129 11.2774 8.49507 11.2668 8.5265C10.3658 11.1981 12.6407 13.8619 15.3681 13.4931C15.401 13.4885 15.4346 13.4931 15.465 13.5066C15.4955 13.52 15.5216 13.5417 15.5403 13.5691C15.5591 13.5966 15.5699 13.6287 15.5714 13.662C15.5729 13.6952 15.565 13.7281 15.5488 13.7571ZM11.7504 5.43854V4.24979C11.7504 4.18354 11.7767 4.12001 11.8236 4.07316C11.8704 4.02632 11.934 4 12.0002 4C12.0665 4 12.13 4.02632 12.1768 4.07316C12.2237 4.12001 12.25 4.18354 12.25 4.24979V5.43854C12.25 5.50479 12.2237 5.56832 12.1768 5.61517C12.13 5.66201 12.0665 5.68833 12.0002 5.68833C11.934 5.68833 11.8704 5.66201 11.8236 5.61517C11.7767 5.56832 11.7504 5.50479 11.7504 5.43854ZM15.0651 6.19147L15.6595 5.16303C15.6755 5.13395 15.6972 5.10836 15.7232 5.08776C15.7492 5.06716 15.7791 5.05197 15.8111 5.04308C15.8431 5.03418 15.8765 5.03176 15.9094 5.03596C15.9423 5.04016 15.9741 5.05089 16.0028 5.06753C16.0315 5.08417 16.0566 5.10638 16.0767 5.13285C16.0967 5.15932 16.1112 5.18953 16.1194 5.22169C16.1276 5.25386 16.1293 5.28734 16.1244 5.32016C16.1195 5.35299 16.108 5.3845 16.0908 5.41285L15.4965 6.44129C15.4805 6.47037 15.4589 6.49595 15.4329 6.51655C15.4068 6.53715 15.3769 6.55235 15.345 6.56124C15.313 6.57014 15.2796 6.57256 15.2466 6.56836C15.2137 6.56416 15.1819 6.55342 15.1532 6.53679C15.1245 6.52015 15.0994 6.49794 15.0794 6.47147C15.0593 6.445 15.0448 6.41479 15.0366 6.38262C15.0284 6.35046 15.0267 6.31698 15.0317 6.28415C15.0366 6.25133 15.0479 6.21982 15.0651 6.19147ZM17.4666 8.8436C17.4336 8.78626 17.4246 8.71816 17.4417 8.65423C17.4588 8.5903 17.5006 8.53576 17.5578 8.50256L18.5871 7.90817C18.6444 7.87504 18.7126 7.86604 18.7765 7.88315C18.8405 7.90026 18.895 7.94208 18.9282 7.99941C18.9613 8.05673 18.9703 8.12487 18.9532 8.18883C18.9361 8.25279 18.8943 8.30733 18.8369 8.34046L17.8076 8.93395C17.7504 8.96704 17.6823 8.97611 17.6184 8.95918C17.5545 8.94225 17.4999 8.90069 17.4666 8.8436ZM7.90948 5.41285C7.89222 5.3845 7.88079 5.35299 7.87587 5.32016C7.87095 5.28734 7.87264 5.25386 7.88083 5.22169C7.88902 5.18953 7.90356 5.15932 7.92358 5.13285C7.9436 5.10638 7.96871 5.08417 7.99743 5.06753C8.02616 5.05089 8.05791 5.04016 8.09084 5.03596C8.12376 5.03176 8.1572 5.03418 8.18918 5.04308C8.22115 5.05197 8.25103 5.06716 8.27706 5.08776C8.30309 5.10836 8.32474 5.13395 8.34074 5.16303L8.93513 6.19147C8.9524 6.21982 8.96383 6.25133 8.96875 6.28415C8.97367 6.31698 8.97198 6.35046 8.96379 6.38262C8.9556 6.41479 8.94106 6.445 8.92104 6.47147C8.90101 6.49794 8.8759 6.52015 8.84718 6.53679C8.81846 6.55342 8.78671 6.56416 8.75378 6.56836C8.72085 6.57256 8.68742 6.57014 8.65544 6.56124C8.62346 6.55235 8.59358 6.53715 8.56756 6.51655C8.54153 6.49595 8.51988 6.47037 8.50387 6.44129L7.90948 5.41285ZM20 11.9989C20.0001 12.0652 19.9739 12.1289 19.927 12.1759C19.8802 12.2229 19.8166 12.2494 19.7502 12.2495H18.5614C18.4951 12.2495 18.4314 12.2232 18.3845 12.1762C18.3376 12.1293 18.3112 12.0657 18.3112 11.9993C18.3112 11.9329 18.3376 11.8693 18.3845 11.8224C18.4314 11.7754 18.4951 11.7491 18.5614 11.7491H19.7502C19.8164 11.7491 19.8799 11.7755 19.9268 11.8223C19.9736 11.8691 19.9999 11.9326 20 11.9989ZM16.091 18.5858C16.1083 18.6141 16.1197 18.6457 16.1247 18.6785C16.1297 18.7114 16.128 18.7449 16.1198 18.7771C16.1116 18.8093 16.0971 18.8395 16.0771 18.866C16.057 18.8925 16.0319 18.9147 16.0032 18.9314C15.9744 18.948 15.9426 18.9588 15.9097 18.963C15.8767 18.9672 15.8433 18.9647 15.8113 18.9558C15.7793 18.9469 15.7494 18.9316 15.7233 18.911C15.6973 18.8903 15.6757 18.8647 15.6597 18.8356L15.0653 17.8072C15.0338 17.7501 15.0259 17.6829 15.0432 17.62C15.0606 17.5572 15.1019 17.5036 15.1583 17.4708C15.2147 17.438 15.2817 17.4287 15.3449 17.4447C15.4081 17.4607 15.4626 17.5008 15.4966 17.5565L16.091 18.5858ZM5.07315 8.00033C5.08936 7.97196 5.111 7.94707 5.13683 7.92708C5.16267 7.90709 5.1922 7.89239 5.22372 7.88383C5.25525 7.87527 5.28816 7.87301 5.32056 7.87719C5.35296 7.88137 5.38421 7.89189 5.41254 7.90817L6.44185 8.50256C6.47097 8.51842 6.49663 8.53994 6.51732 8.56586C6.53801 8.59178 6.55331 8.62157 6.56232 8.65349C6.57133 8.68541 6.57387 8.7188 6.56978 8.75171C6.5657 8.78463 6.55508 8.81639 6.53855 8.84514C6.52201 8.87388 6.4999 8.89904 6.4735 8.91912C6.44711 8.93919 6.41697 8.95379 6.38485 8.96206C6.35273 8.97032 6.31929 8.97208 6.28648 8.96723C6.25367 8.96238 6.22216 8.95102 6.19381 8.93382L5.16441 8.34046C5.10721 8.30745 5.06546 8.25308 5.04835 8.18929C5.03123 8.12551 5.04016 8.05753 5.07315 8.00033ZM18.9273 15.9992C18.911 16.0276 18.8892 16.0524 18.8632 16.0723C18.8373 16.0922 18.8076 16.1068 18.776 16.1152C18.7444 16.1236 18.7114 16.1256 18.679 16.1212C18.6466 16.1168 18.6154 16.1061 18.5871 16.0896L17.5578 15.4961C17.5287 15.4801 17.503 15.4585 17.4824 15.4324C17.4617 15.4064 17.4465 15.3765 17.4376 15.3445C17.4287 15.3125 17.4262 15.279 17.4304 15.2461C17.4346 15.2131 17.4453 15.1813 17.462 15.1526C17.4786 15.1238 17.5009 15.0987 17.5274 15.0787C17.5539 15.0587 17.5841 15.0441 17.6163 15.0359C17.6485 15.0278 17.682 15.0261 17.7149 15.0311C17.7477 15.036 17.7792 15.0475 17.8076 15.0648L18.8369 15.6583C18.894 15.6916 18.9356 15.7462 18.9525 15.8101C18.9695 15.874 18.9604 15.942 18.9273 15.9992ZM12.25 18.5601V19.7488C12.25 19.8151 12.2237 19.8786 12.1768 19.9255C12.13 19.9723 12.0665 19.9986 12.0002 19.9986C11.934 19.9986 11.8704 19.9723 11.8236 19.9255C11.7767 19.8786 11.7504 19.8151 11.7504 19.7488V18.5601C11.7504 18.4938 11.7767 18.4303 11.8236 18.3835C11.8704 18.3366 11.934 18.3103 12.0002 18.3103C12.0665 18.3103 12.13 18.3366 12.1768 18.3835C12.2237 18.4303 12.25 18.4938 12.25 18.5601ZM5.43988 12.2495H4.25023C4.18386 12.2495 4.12022 12.2232 4.07329 12.1762C4.02636 12.1293 4 12.0657 4 11.9993C4 11.9329 4.02636 11.8693 4.07329 11.8224C4.12022 11.7754 4.18386 11.7491 4.25023 11.7491H5.43988C5.50625 11.7491 5.56989 11.7754 5.61682 11.8224C5.66375 11.8693 5.69011 11.9329 5.69011 11.9993C5.69011 12.0657 5.66375 12.1293 5.61682 12.1762C5.56989 12.2232 5.50625 12.2495 5.43988 12.2495ZM8.93532 17.8072L8.34093 18.8356C8.32495 18.8647 8.30332 18.8903 8.27729 18.911C8.25126 18.9316 8.22137 18.9469 8.18937 18.9558C8.15737 18.9647 8.12391 18.9672 8.09095 18.963C8.05799 18.9588 8.02621 18.948 7.99746 18.9314C7.96871 18.9147 7.94358 18.8925 7.92355 18.866C7.90352 18.8395 7.88898 18.8093 7.8808 18.7771C7.87262 18.7449 7.87096 18.7114 7.87592 18.6785C7.88088 18.6457 7.89235 18.6141 7.90967 18.5858L8.50406 17.5565C8.53806 17.5008 8.59251 17.4607 8.65574 17.4447C8.71897 17.4287 8.78595 17.438 8.84234 17.4708C8.89873 17.5036 8.94004 17.5572 8.95742 17.62C8.9748 17.6829 8.96687 17.7501 8.93532 17.8072ZM6.53385 15.1559C6.5667 15.2132 6.57546 15.2813 6.55819 15.345C6.54092 15.4088 6.49904 15.4631 6.44175 15.4961L5.41254 16.0896C5.35546 16.1206 5.2885 16.1281 5.22595 16.1105C5.16341 16.0928 5.11026 16.0514 5.07786 15.9951C5.04546 15.9387 5.03638 15.872 5.05257 15.809C5.06877 15.7461 5.10894 15.692 5.1645 15.6583L6.19381 15.0647C6.251 15.0317 6.31895 15.0228 6.38271 15.0399C6.44648 15.057 6.50084 15.0987 6.53385 15.1559Z" fill="#FAC600"/>
</svg>
