<svg width="250" height="32" viewBox="0 0 250 32" fill="none" xmlns="http://www.w3.org/2000/svg">
<path d="M41.0099 31.9842C45.9118 32.2485 50.3276 29.0695 51.5873 24.3711C52.6922 19.3097 50.2378 15.908 44.637 12.6677C42.8842 11.6549 42.7972 10.7644 42.9602 10.0354C43.0431 9.38708 43.6964 8.78049 44.963 8.78049C46.413 8.9793 47.7313 9.73317 48.6439 10.8855L54.2862 5.94646C53.0888 4.50263 51.5865 3.34622 49.889 2.56156C48.1915 1.77691 46.3415 1.38379 44.474 1.4109C39.898 1.13125 35.7447 4.04737 34.4975 8.41597C33.4339 13.1533 35.8469 16.8791 41.1618 19.9858C43.1232 21.1601 43.329 22.1326 43.1646 23.023C43.0494 23.5028 42.768 23.9255 42.371 24.215C41.9739 24.5045 41.4874 24.6417 40.9989 24.6021C38.137 24.6021 35.8884 21.3228 35.8884 21.3228L30.0002 25.7888C32.2986 29.6441 36.4892 32.0037 41.0099 31.9842ZM71.119 1.40116C72.412 1.33822 73.7023 1.57087 74.8933 2.08167C76.0843 2.59248 77.1451 3.36819 77.9961 4.35066C78.8331 5.3186 79.4328 6.47091 79.7471 7.71488C80.0614 8.95886 80.0814 10.2598 79.8055 11.513C78.9077 16.6829 74.1439 20.3197 68.8304 19.8926H65.4312L63.0914 30.6082H54.2862L60.6743 1.40116H71.119ZM69.7268 8.63997H67.8939L66.9933 12.8694H69.0002C70.2116 12.9251 71.271 12.0764 71.4574 10.8966L71.445 10.9077C71.5155 10.629 71.5184 10.3372 71.4535 10.0571C71.3886 9.77693 71.2578 9.51661 71.0721 9.29804C70.8832 9.07621 70.6458 8.90148 70.3786 8.78754C70.1114 8.67361 69.8216 8.62357 69.532 8.64136L69.7268 8.63997ZM89.974 31.98C96.4436 32.3445 102.096 27.6531 102.923 21.2324L107.142 1.39142H98.2475L94.235 20.2404C93.8621 22.1006 92.9533 23.0508 91.3801 23.0508C89.271 23.0508 88.7212 21.7708 89.1052 20.1569L93.0762 1.39142H84.1812L80.3414 19.6617C78.6494 27.7227 83.4781 31.98 89.974 31.98ZM125.64 1.39977C126.899 1.3406 128.154 1.5692 129.313 2.06844C130.472 2.56768 131.503 3.3246 132.33 4.28249C133.145 5.22774 133.73 6.35174 134.037 7.56483C134.344 8.77791 134.366 10.0465 134.1 11.2695C133.533 14.5195 131.333 17.2659 128.259 18.5598L133.195 30.6082H123.888L119.775 19.4891L117.354 30.6082H108.572L114.844 1.39977H125.64ZM123.848 8.6511H122.741L121.597 13.9296H123.113C124.62 14.0186 125.956 12.9794 126.218 11.5116C126.321 11.162 126.337 10.7923 126.263 10.4354C126.189 10.0785 126.029 9.74553 125.796 9.46638C125.322 8.89596 124.594 8.58988 123.848 8.6511Z" fill="#2FACD6"/>
<path d="M158.572 1.39169H136.085L134.286 9.57239H141.113L136.576 30.6085H145.366L149.903 9.57239H156.772L158.572 1.39169Z" fill="#2FACD6"/>
<path d="M174.359 31.9771C179.221 32.2373 183.907 30.1559 186.946 26.3897L180.572 21.3269C179.888 22.0957 179.05 22.7097 178.113 23.1287C177.176 23.5476 176.162 23.7619 175.137 23.7574C174.152 23.7469 173.183 23.5118 172.302 23.0699C171.421 22.628 170.65 21.9907 170.048 21.2058C169.454 20.4287 169.047 19.5232 168.859 18.5607C168.671 17.5981 168.708 16.6048 168.965 15.6588C169.541 12.1737 172.583 9.61789 176.146 9.62485C178.854 9.64572 181.256 11.3459 182.155 13.8766L190 10.4346C188.017 4.97938 182.773 1.35928 176.923 1.40519C168.8 1.0852 161.699 6.78665 160.33 14.7267C159.873 16.8063 159.892 18.9633 160.385 21.0346C160.878 23.1058 161.832 25.037 163.175 26.6819C164.534 28.3431 166.242 29.6798 168.176 30.5955C170.11 31.5112 172.222 31.9831 174.359 31.9771ZM190 31.9994H198.372L201.3 21.1516L205.884 31.2063L214.456 22.1116L213.011 31.9994H221.341L225.713 0L208.351 17.3979L199.108 0L190 31.9994ZM236.706 31.984C241.615 32.254 246.039 29.0735 247.3 24.371C248.405 19.3081 245.95 15.9065 240.347 12.6676C238.593 11.6547 238.506 10.7643 238.67 10.0353C238.751 9.38694 239.406 8.78034 240.673 8.78034C242.123 8.9791 243.442 9.73294 244.355 10.8853L250 5.94631C248.802 4.50221 247.298 3.34567 245.6 2.56103C243.902 1.77639 242.051 1.38341 240.182 1.41075C235.606 1.13111 231.45 4.04722 230.202 8.41583C229.138 13.1531 231.553 16.879 236.87 19.9857C238.833 21.1599 239.039 22.131 238.873 23.0228C238.758 23.503 238.476 23.9258 238.079 24.2154C237.681 24.5049 237.195 24.642 236.706 24.6019C233.843 24.6019 231.593 21.3213 231.593 21.3213L225.714 25.7873C228.008 29.637 232.192 31.9938 236.706 31.984Z" fill="#2FACD6"/>
<path d="M26.1975 17.7808H10.8329C10.5605 17.7378 10.3123 17.5985 10.1326 17.388C9.95287 17.1774 9.85349 16.9092 9.85221 16.6316C9.85221 16.0625 10.2666 15.577 10.8329 15.4838H26.1975C26.4696 15.5267 26.7177 15.6657 26.8974 15.876C27.077 16.0863 27.1766 16.3541 27.1782 16.6316C27.1766 16.909 27.077 17.1768 26.8974 17.3871C26.7177 17.5974 26.4696 17.7378 26.1975 17.7808ZM28.7818 3.9946H10.9917C10.7828 4.00561 10.5749 3.95975 10.3897 3.86182C10.2045 3.76389 10.0489 3.61752 9.93923 3.43809C9.83121 3.26005 9.77405 3.05545 9.77405 2.84679C9.77405 2.63814 9.83121 2.43354 9.93923 2.2555C10.0489 2.07607 10.2045 1.9297 10.3897 1.83177C10.5749 1.73384 10.7828 1.68798 10.9917 1.69899H28.7818C28.9907 1.68798 29.1986 1.73384 29.3838 1.83177C29.569 1.9297 29.7246 2.07607 29.8343 2.2555C30.0553 2.62002 30.0553 3.07357 29.8343 3.43809C29.7246 3.61752 29.569 3.76389 29.3838 3.86182C29.1986 3.95975 28.9907 4.00561 28.7818 3.9946ZM24.2804 10.887H1.10221C0.807308 10.8748 0.528349 10.7489 0.323148 10.5352C0.117947 10.3215 0.00223702 10.0365 0 9.73918C0 9.12701 0.483425 8.62198 1.10221 8.59137H24.279C24.5739 8.60351 24.8529 8.72948 25.0581 8.94317C25.2633 9.15686 25.379 9.44189 25.3812 9.73918C25.3812 10.3513 24.8978 10.8564 24.2804 10.887Z" fill="#2FACD6"/>
</svg>
