<svg width="12" height="12" viewBox="0 0 12 12" fill="none" xmlns="http://www.w3.org/2000/svg">
<path d="M10.5016 4.44439L3.14291 0.192862C2.93256 0.0684103 2.69301 0.0018687 2.4486 0C2.06441 0 1.69595 0.15262 1.42429 0.424286C1.15262 0.695952 1 1.06441 1 1.4486V10.5731C1.00005 10.8281 1.06839 11.0783 1.19793 11.2979C1.32746 11.5175 1.51346 11.6984 1.73657 11.8218C1.95969 11.9452 2.21178 12.0065 2.46664 11.9995C2.72149 11.9924 2.96981 11.9172 3.18576 11.7817L10.5531 7.1273C10.7821 6.98394 10.9702 6.78368 11.0988 6.54604C11.2275 6.30839 11.2924 6.04147 11.2872 5.77128C11.282 5.50109 11.207 5.23685 11.0693 5.00431C10.9316 4.77177 10.736 4.57887 10.5016 4.44439Z" fill="black"/>
</svg>
