<svg width="12" height="12" viewBox="0 0 12 12" fill="none" xmlns="http://www.w3.org/2000/svg">
<path d="M6.98161 5.48067C6.86316 5.48067 6.74471 5.43556 6.65448 5.3451C5.93291 4.62353 4.75882 4.6233 4.03702 5.3451C3.85656 5.52578 3.56322 5.52578 3.38277 5.3451C3.20208 5.16442 3.20208 4.87153 3.38277 4.69085C4.46524 3.60814 6.22649 3.60837 7.30873 4.69085C7.48942 4.87153 7.48942 5.16442 7.30873 5.3451C7.21851 5.43556 7.09983 5.48067 6.98161 5.48067Z" fill="#3780FF"/>
<path d="M6.65446 8.12109C5.94353 8.12109 5.2326 7.85042 4.69148 7.30929C4.5108 7.12861 4.5108 6.83573 4.69148 6.65504C4.87193 6.47436 5.16528 6.47436 5.34573 6.65504C6.06731 7.37662 7.24139 7.37685 7.9632 6.65504C8.14365 6.47436 8.437 6.47436 8.61745 6.65504C8.79813 6.83573 8.79813 7.12861 8.61745 7.30929C8.0761 7.85042 7.36516 8.12109 6.65446 8.12109Z" fill="#3780FF"/>
<path d="M8.29012 7.44354C8.17167 7.44354 8.05322 7.39843 7.963 7.30797C7.78231 7.12729 7.78231 6.8344 7.963 6.65372L10.5476 4.06911C10.7281 3.88842 11.0214 3.88842 11.2019 4.06911C11.3825 4.24979 11.3825 4.54267 11.2019 4.72336L8.61725 7.30797C8.52702 7.39843 8.40857 7.44354 8.29012 7.44354Z" fill="#3780FF"/>
<path d="M4.39699 11.3369C4.27854 11.3369 4.16009 11.2918 4.06987 11.2013C3.88919 11.0206 3.88919 10.7278 4.06987 10.5471L5.51463 9.10231C5.69509 8.92163 5.98843 8.92163 6.16889 9.10231C6.34957 9.28299 6.34957 9.57588 6.16889 9.75656L4.72412 11.2013C4.63389 11.2918 4.51544 11.3369 4.39699 11.3369Z" fill="#3780FF"/>
<path d="M1.12527 8.06636C1.00682 8.06636 0.888366 8.02124 0.79814 7.93079C0.617458 7.7501 0.617458 7.45722 0.79814 7.27654L3.38276 4.69215C3.56344 4.51147 3.85655 4.51147 4.03701 4.69215C4.21769 4.87283 4.21769 5.16572 4.03701 5.3464L1.45239 7.93079C1.36193 8.02101 1.24348 8.06636 1.12527 8.06636Z" fill="#3780FF"/>
<path d="M6.15825 3.03244C6.0398 3.03244 5.92159 2.98733 5.83113 2.8971C5.65045 2.71642 5.65045 2.42353 5.83113 2.24262L7.27589 0.797621C7.45658 0.616939 7.74946 0.616939 7.93038 0.797621C8.11106 0.978304 8.11106 1.27119 7.93038 1.4521L6.48561 2.8971C6.39515 2.98709 6.27647 3.03244 6.15825 3.03244Z" fill="#3780FF"/>
<path d="M2.76113 12.0005C2.04558 12.0005 1.33002 11.7344 0.798149 11.2023C-0.26605 10.1381 -0.26605 8.34034 0.798149 7.27614C0.9786 7.09545 1.27195 7.09545 1.4524 7.27614C1.63308 7.45682 1.63308 7.74971 1.4524 7.93039C0.743088 8.6397 0.743088 9.83854 1.4524 10.5479C2.16171 11.2572 3.36056 11.2572 4.06987 10.5479C4.25032 10.3672 4.54367 10.3672 4.72412 10.5479C4.9048 10.7285 4.9048 11.0214 4.72412 11.2021C4.19225 11.7344 3.47669 12.0005 2.76113 12.0005Z" fill="#3780FF"/>
<path d="M10.8747 4.85969C10.7563 4.85969 10.6378 4.81458 10.5476 4.72412C10.3669 4.54344 10.3669 4.25055 10.5476 4.06987C11.2569 3.36056 11.2569 2.16171 10.5476 1.4524C9.8383 0.743088 8.63946 0.743088 7.93014 1.4524C7.74969 1.63308 7.45634 1.63308 7.27589 1.4524C7.09521 1.27172 7.09521 0.978832 7.27589 0.798149C8.34009 -0.26605 10.1379 -0.26605 11.2021 0.798149C12.2663 1.86235 12.2663 3.66015 11.2021 4.72435C11.1116 4.81457 10.9932 4.85969 10.8747 4.85969Z" fill="#3780FF"/>
</svg>
