<svg width="24" height="24" viewBox="0 0 24 24" fill="none" xmlns="http://www.w3.org/2000/svg">
<path d="M15.6094 7.03125C14.7047 7.03125 13.9688 6.29527 13.9688 5.39062V0H5.57812C4.15655 0 3 1.15655 3 2.57812V21.4219C3 22.8435 4.15655 24 5.57812 24H18.7031C20.1247 24 21.2812 22.8435 21.2812 21.4219V7.03125H15.6094ZM6.84375 16.875H10.2525C10.6408 16.875 10.9556 17.1898 10.9556 17.5781C10.9556 17.9664 10.6408 18.2812 10.2525 18.2812H6.84375C6.45544 18.2812 6.14062 17.9664 6.14062 17.5781C6.14062 17.1898 6.45544 16.875 6.84375 16.875ZM6.14062 13.8281C6.14062 13.4398 6.45544 13.125 6.84375 13.125H17.1562C17.5446 13.125 17.8594 13.4398 17.8594 13.8281C17.8594 14.2164 17.5446 14.5312 17.1562 14.5312H6.84375C6.45544 14.5312 6.14062 14.2164 6.14062 13.8281ZM17.1562 9.375C17.5446 9.375 17.8594 9.68981 17.8594 10.0781C17.8594 10.4664 17.5446 10.7812 17.1562 10.7812H6.84375C6.45544 10.7812 6.14062 10.4664 6.14062 10.0781C6.14062 9.68981 6.45544 9.375 6.84375 9.375H17.1562Z" fill="black"/>
<path d="M15.375 5.39003C15.375 5.51927 15.4801 5.62441 15.6094 5.62441H20.9678C20.8392 5.38694 20.6738 5.16883 20.475 4.98072L15.9551 0.704687C15.7797 0.53875 15.5843 0.400328 15.375 0.291016V5.39003H15.375Z" fill="black"/>
</svg>
