<svg width="12" height="12" viewBox="0 0 12 12" fill="none" xmlns="http://www.w3.org/2000/svg">
<path d="M6.00361 9.50702C6.00361 9.71842 5.88147 9.91047 5.69032 10.0001C5.61641 10.0351 5.53722 10.052 5.45854 10.052C5.33395 10.052 5.21052 10.0091 5.11081 9.92646L2.13164 7.45779H0.544939C0.244029 7.45805 0 7.21389 0 6.91298V4.74187C0 4.44083 0.244029 4.1968 0.544939 4.1968H2.13177L5.11094 1.72813C5.27372 1.59322 5.49943 1.56446 5.69045 1.65474C5.88147 1.74438 6.00374 1.93656 6.00374 2.14783L6.00361 9.50702ZM8.09785 8.65549C8.08457 8.6564 8.0718 8.65691 8.05864 8.65691C7.9147 8.65691 7.77592 8.60003 7.67338 8.49736L7.60051 8.42423C7.40936 8.23347 7.38692 7.93127 7.54788 7.71433C7.95597 7.1641 8.17137 6.51185 8.17137 5.82762C8.17137 5.09166 7.92683 4.40136 7.46405 3.83127C7.28786 3.61459 7.30411 3.29988 7.50158 3.10254L7.57432 3.02966C7.68318 2.9208 7.82906 2.86147 7.98693 2.87089C8.14067 2.87863 8.28423 2.95099 8.38174 3.07016C9.02367 3.85565 9.36275 4.80932 9.36275 5.82775C9.36275 6.77626 9.06288 7.67912 8.49537 8.43829C8.40057 8.56482 8.25559 8.64427 8.09785 8.65549ZM10.3509 10.3396C10.2523 10.456 10.1098 10.526 9.95722 10.5324C9.94974 10.5327 9.94213 10.5329 9.93439 10.5329C9.79006 10.5329 9.65154 10.4759 9.549 10.3734L9.47742 10.3018C9.27737 10.1019 9.26383 9.78213 9.44569 9.5657C10.3246 8.52045 10.8087 7.19299 10.8087 5.82762C10.8087 4.40742 10.2904 3.04024 9.34947 1.97796C9.15871 1.76231 9.16838 1.43586 9.3714 1.23208L9.44285 1.16049C9.54887 1.05395 9.68662 0.995269 9.84462 1.0003C9.99463 1.00456 10.1365 1.07085 10.2362 1.18306C11.3735 2.46357 12 4.11322 12 5.82762C12.0003 7.47714 11.4146 9.07958 10.3509 10.3396Z" fill="#A8AAAA"/>
</svg>
